<svg width="512" height="512" viewBox="0 0 512 512" fill="white" xmlns="http://www.w3.org/2000/svg">
<path d="M256 0C114.62 0 0 114.62 0 256c0 110.63 69.92 204.67 168.02 239.02-2.33-20.32-4.42-51.52.92-73.67 4.83-20.3 31.17-132.5 31.17-132.5s-7.95-15.88-7.95-39.33c0-36.87 21.37-64.37 47.95-64.37 22.6 0 33.53 16.97 33.53 37.3 0 22.72-14.47 56.7-21.93 88.17-6.22 26.3 13.22 47.75 39.2 47.75 47.06 0 83.2-49.67 83.2-121.47 0-63.5-45.62-107.9-110.7-107.9-75.42 0-119.72 56.47-119.72 114.87 0 22.7 8.72 47.07 19.63 60.33 2.17 2.63 2.5 4.92 1.83 7.63-2 8.3-6.55 26.3-7.45 29.92-1.17 4.83-3.83 5.88-8.85 3.53-33-15.38-53.58-63.58-53.58-102.85 0-83.42 60.67-160.42 175.17-160.42 92.08 0 163.42 65.67 163.42 153.62 0 91.33-57.75 164.75-138.25 164.75-27 0-52.42-14.62-61.17-31.25l-16.67 63.5c-6.08 23.58-22.58 53-33.58 71.05C208.17 507.75 231.33 512 256 512c141.38 0 256-114.62 256-256S397.38 0 256 0z"></path>
</svg>
