<svg xmlns="http://www.w3.org/2000/svg" width="28" height="28" fill="white" viewBox="0 0 24 24">
  <path d="M12.04 2c-5.52 0-10 4.47-10 9.98 0 1.76.46 3.46 1.33 4.96L2 22l5.23-1.37c1.42.77 3.01 1.18 4.64 1.18h.01c5.52 0 10-4.47 10-9.98 0-2.67-1.05-5.18-2.96-7.07A9.93 9.93 0 0 0 12.04 2zm-.01 18c-1.39 0-2.75-.36-3.94-1.04l-.28-.16-3.1.81.83-3.02-.18-.31a8.48 8.48 0 0 1-1.3-4.53c0-4.71 3.84-8.54 8.55-8.54 2.29 0 4.44.89 6.05 2.49a8.52 8.52 0 0 1 2.5 6.05c0 4.71-3.84 8.54-8.54 8.54zm4.67-6.36c-.25-.13-1.47-.72-1.7-.8-.23-.09-.4-.13-.56.13-.17.25-.64.8-.78.96-.14.16-.29.18-.54.06-.25-.13-1.05-.39-2-1.23-.74-.66-1.24-1.47-1.38-1.72-.14-.25-.02-.38.1-.5.1-.1.25-.26.38-.39.13-.13.17-.22.26-.37.08-.16.04-.3-.02-.42-.06-.13-.56-1.33-.77-1.83-.2-.48-.41-.42-.56-.43h-.48c-.17 0-.43.06-.66.3s-.87.84-.87 2.06c0 1.22.9 2.4 1.03 2.56.13.16 1.76 2.68 4.27 3.75.6.26 1.07.42 1.44.54.61.19 1.16.16 1.6.1.49-.07 1.47-.6 1.68-1.18.21-.57.21-1.06.15-1.18-.06-.12-.22-.18-.47-.3z"></path>
</svg>
